<svg width="14" height="12" viewBox="0 0 14 12" fill="none" xmlns="http://www.w3.org/2000/svg">
<rect width="14" height="11.6667" fill="black" fill-opacity="0"/>
<path d="M3.94327 6.93058C3.85982 7.04926 3.79028 7.15398 3.71379 7.2587C3.63034 7.37739 3.51908 7.41927 3.37999 7.34946C3.18528 7.24474 2.99057 7.147 2.79586 7.04228C2.67764 6.97945 2.62896 6.88869 2.67764 6.75604C2.72632 6.62339 2.76804 6.49075 2.81672 6.3581C2.48988 6.18356 2.16999 6.01601 1.84315 5.84148C1.76666 5.9462 1.69712 6.04394 1.63453 6.14168C1.53718 6.28829 1.43287 6.31621 1.27988 6.23942C1.09212 6.14168 0.897406 6.03696 0.709647 5.93922C0.591429 5.87638 0.542751 5.78562 0.591429 5.65298C0.640107 5.51335 0.688785 5.36674 0.737464 5.22711C0.633153 5.14333 0.528843 5.0805 0.43844 4.99673C0.0211985 4.64067 -0.0900659 4.17292 0.0698768 3.67026C0.535797 2.26001 1.34246 1.10808 2.55942 0.256349C2.71241 0.151627 2.90017 0.0748319 3.08097 0.0259621C3.53298 -0.0927219 3.92936 0.207479 3.95718 0.682214C3.96413 0.842787 3.95023 1.00336 3.92936 1.16393C3.88068 1.54791 4.03367 1.84113 4.31183 2.08548C4.8612 2.56021 5.49402 2.75569 6.23115 2.74871C6.11293 2.40662 5.99471 2.0785 5.87649 1.75037C5.84867 1.67357 5.82086 1.59678 5.8 1.51998C5.66092 1.06619 5.82781 0.75901 6.27982 0.619382C6.46063 0.56353 6.64839 0.528623 6.83615 0.493716C7.11431 0.444847 7.36465 0.528623 7.5385 0.745047C7.76799 1.03827 7.99052 1.35243 8.16437 1.68056C8.89454 3.03495 9.84029 4.23575 10.7652 5.45052C11.7109 6.69321 12.6775 7.92892 13.6302 9.16463C13.8528 9.45086 13.9849 9.77201 13.9988 10.142C14.0336 11.0287 13.3103 11.6011 12.455 11.3568C12.4202 11.3498 12.3855 11.3358 12.3576 11.3289C12.0239 11.2381 12.0239 11.2381 11.8222 11.5174C11.697 11.6849 11.6275 11.7059 11.4467 11.6081C11.2659 11.5174 11.0851 11.4196 10.9112 11.3219C10.7721 11.2521 10.7374 11.1473 10.793 11.0077C10.8417 10.889 10.8834 10.7703 10.9251 10.6377C10.5983 10.4632 10.2784 10.2956 9.9446 10.1211C9.8681 10.2258 9.78466 10.3305 9.71512 10.4422C9.63167 10.5679 9.52736 10.5958 9.40218 10.533C9.19356 10.4283 8.9919 10.3166 8.79023 10.2049C8.67896 10.142 8.65115 10.0443 8.69287 9.9256C8.7346 9.79295 8.84586 9.63238 8.80414 9.54162C8.75546 9.4369 8.57465 9.38803 8.44948 9.31822C8.29649 9.23444 8.13655 9.16463 7.99052 9.07387C7.88621 9.01104 7.82362 9.03198 7.76799 9.1367C7.74017 9.18557 7.7054 9.23444 7.67063 9.27633C7.50373 9.49275 7.46201 9.50671 7.22557 9.38105C7.05868 9.29029 6.88483 9.19953 6.71793 9.11576C6.5858 9.04594 6.55799 8.9482 6.60666 8.80857C6.74574 8.41762 6.74574 8.41762 6.37718 8.22214C5.62615 7.8242 4.86816 7.42626 4.11712 7.02831C4.06149 6.99341 4.00586 6.96548 3.94327 6.93058ZM8.19218 3.014C7.65672 3.23043 7.07954 3.33515 6.48149 3.36308C5.56356 3.39798 4.71517 3.22345 3.97804 2.62305C3.47735 2.21114 3.22005 1.71546 3.31741 1.05223C3.33132 0.961471 3.33827 0.870713 3.34522 0.772973C3.34522 0.626363 3.28264 0.577493 3.15051 0.633345C2.76109 0.800898 3.06011 2.38568 3.34522 2.89532C3.82505 3.75403 4.04758 4.66162 3.79724 5.63902C3.76247 5.78562 3.71379 5.92525 3.66511 6.07186C4.00586 6.25338 4.3327 6.41395 4.65954 6.60245C5.04896 6.83284 5.4662 6.97246 5.90431 7.06322C6.89178 7.26568 7.8723 7.34248 8.85282 7.04228C9.45086 6.86076 9.92374 6.51867 10.1184 5.88336C10.1602 5.75072 10.1393 5.65298 10.0559 5.53429C9.43695 4.71049 8.825 3.87272 8.19218 3.014ZM3.28264 5.89035C3.49126 5.37372 3.53298 4.88502 3.44954 4.38236C3.3035 3.52365 0.953038 2.96514 0.695739 3.69818C0.549705 4.11009 0.626199 4.39632 0.932176 4.57784C1.69712 5.02465 2.48292 5.45052 3.28264 5.89035ZM6.34241 1.23375C6.52322 1.72943 6.68316 2.1902 6.85701 2.65097C6.86396 2.6789 6.9196 2.7138 6.94741 2.70682C7.2673 2.64399 7.58718 2.57418 7.94184 2.4904C7.67758 2.05755 7.4481 1.66659 7.20471 1.2896C7.14908 1.20582 7.02391 1.11506 6.92655 1.12204C6.73184 1.12204 6.55103 1.18488 6.34241 1.23375Z" fill="#0D0C29"/>
</svg>
