<?xml version="1.0" encoding="utf-8"?>
<!-- Generator: Adobe Illustrator 21.0.0, SVG Export Plug-In . SVG Version: 6.00 Build 0)  -->
<svg version="1.1" id="Layer_1" xmlns="http://www.w3.org/2000/svg" xmlns:xlink="http://www.w3.org/1999/xlink" x="0px" y="0px"
	 viewBox="0 0 30 30" style="enable-background:new 0 0 30 30;" xml:space="preserve">
<style type="text/css">
	.st0{fill:#FF0000;}
</style>
<path class="st0" d="M30,15c0-2.7-0.7-5.2-2.1-7.5c-1.3-2.3-3.1-4.1-5.4-5.4C20.2,0.7,17.7,0,15,0c-2.7,0-5.2,0.7-7.5,2.1
	C5.2,3.4,3.3,5.2,2,7.5C0.7,9.8,0,12.3,0,15c0,2.7,0.7,5.2,2,7.5c1.3,2.3,3.2,4.2,5.5,5.5c2.3,1.3,4.8,2,7.5,2c2.7,0,5.2-0.7,7.5-2
	c2.3-1.3,4.1-3.2,5.4-5.5C29.3,20.2,30,17.7,30,15z M27.1,15c0,2.7-0.8,5.1-2.3,7.1l-0.5-2.1l-5.1,0.7l-2.2,4.7l1.8,1.1
	c-1.2,0.4-2.5,0.6-3.8,0.6c-1.3,0-2.5-0.2-3.8-0.6l1.8-1.1l-2.2-4.7l-5.1-0.7l-0.5,2.1c-1.6-2.1-2.3-4.5-2.3-7.1l1.6,1.3l3.8-3.5
	l-1-5.1L5.2,7.9c1.6-2.2,3.6-3.6,6.1-4.4l-0.8,1.9L15,7.9l4.5-2.5l-0.8-1.9c2.5,0.8,4.5,2.2,6.1,4.4l-2.1-0.2l-1,5.1l3.8,3.5
	L27.1,15z M12.1,19.2h5.8l1.8-5.6L15,10.3l-4.7,3.4L12.1,19.2z"/>
</svg>
