<svg width="30" height="30" viewBox="0 0 30 30" fill="none" xmlns="http://www.w3.org/2000/svg">
<path d="M30 15C30 12.3387 29.2742 9.79839 27.9435 7.5C26.6129 5.20161 24.7984 3.3871 22.5 2.05645C20.2016 0.725806 17.6613 0 15 0C12.2782 0 9.79839 0.725806 7.5 2.05645C5.20161 3.3871 3.32661 5.20161 1.99597 7.5C0.665323 9.79839 0 12.3387 0 15C0 17.7218 0.665323 20.2016 1.99597 22.5C3.32661 24.7984 5.20161 26.6734 7.5 28.004C9.79839 29.3347 12.2782 30 15 30C17.6613 30 20.2016 29.3347 22.5 28.004C24.7984 26.6734 26.6129 24.7984 27.9435 22.5C29.2742 20.2016 30 17.7218 30 15ZM27.0968 15C27.0968 17.6613 26.3105 20.0806 24.7984 22.1371L24.3145 20.0806L19.1734 20.746L16.9355 25.4032L18.75 26.4919C17.5403 26.9153 16.2702 27.0968 15 27.0968C13.6694 27.0968 12.4597 26.9153 11.25 26.4919L13.0645 25.4032L10.8266 20.746L5.68548 20.0806L5.20161 22.1371C3.62903 20.0806 2.90323 17.6613 2.90323 15L4.47581 16.3306L8.28629 12.8226L7.31855 7.74194L5.20161 7.92339C6.77419 5.74597 8.77016 4.29435 11.3105 3.50806L10.4637 5.38306L15 7.92339L19.5363 5.38306L18.6895 3.50806C21.1694 4.29435 23.2258 5.74597 24.7984 7.92339L22.7419 7.74194L21.7137 12.8226L25.5242 16.3306L27.0968 15ZM12.0968 19.2339H17.9032L19.7177 13.6694L15 10.2823L10.2823 13.6694L12.0968 19.2339Z" fill="#10102A"/>
</svg>
