<svg width="14" height="9" viewBox="0 0 14 9" fill="none" xmlns="http://www.w3.org/2000/svg">
<path d="M10.875 4C10.875 3.3125 10.6875 2.65625 10.3438 2.0625C10 1.46875 9.53125 1 8.9375 0.65625C8.34375 0.3125 7.6875 0.125 7 0.125C6.29688 0.125 5.65625 0.3125 5.0625 0.65625C4.46875 1 3.98438 1.46875 3.64062 2.0625C3.29688 2.65625 3.125 3.3125 3.125 4C3.125 4.70312 3.29688 5.34375 3.64062 5.9375C3.98438 6.53125 4.46875 7.01562 5.0625 7.35938C5.65625 7.70312 6.29688 7.875 7 7.875C7.6875 7.875 8.34375 7.70312 8.9375 7.35938C9.53125 7.01562 10 6.53125 10.3438 5.9375C10.6875 5.34375 10.875 4.70312 10.875 4ZM10.125 4C10.125 4.6875 9.92188 5.3125 9.53125 5.84375L9.40625 5.3125L8.07812 5.48438L7.5 6.6875L7.96875 6.96875C7.65625 7.07812 7.32812 7.125 7 7.125C6.65625 7.125 6.34375 7.07812 6.03125 6.96875L6.5 6.6875L5.92188 5.48438L4.59375 5.3125L4.46875 5.84375C4.0625 5.3125 3.875 4.6875 3.875 4L4.28125 4.34375L5.26562 3.4375L5.01562 2.125L4.46875 2.17188C4.875 1.60938 5.39062 1.23438 6.04688 1.03125L5.82812 1.51562L7 2.17188L8.17188 1.51562L7.95312 1.03125C8.59375 1.23438 9.125 1.60938 9.53125 2.17188L9 2.125L8.73438 3.4375L9.71875 4.34375L10.125 4ZM6.25 5.09375H7.75L8.21875 3.65625L7 2.78125L5.78125 3.65625L6.25 5.09375Z" fill="#0D0C29"/>
<path d="M2 8V0H12V8" stroke="#10102A"/>
<path d="M0 8L14 8" stroke="#10102A"/>
</svg>
